<?xml version="1.0" encoding="UTF-8" standalone="no"?>
<!DOCTYPE svg PUBLIC "-//W3C//DTD SVG 1.1//EN" "http://www.w3.org/Graphics/SVG/1.1/DTD/svg11.dtd">
<svg width="100%" height="100%" viewBox="0 0 417 417" version="1.1" xmlns="http://www.w3.org/2000/svg" xmlns:xlink="http://www.w3.org/1999/xlink" xml:space="preserve" xmlns:serif="http://www.serif.com/" style="fill-rule:evenodd;clip-rule:evenodd;stroke-linecap:round;stroke-linejoin:round;stroke-miterlimit:1.5;">
    <rect id="Artboard1" x="0" y="0" width="416.667" height="416.667" style="fill:none;"/>
    <circle cx="208.333" cy="211.241" r="178.342" style="fill:white;"/>
    <path d="M275.07,45.825C319.861,63.933 355.642,99.715 373.75,144.505" style="fill:none;stroke:rgb(30,21,42);stroke-width:20.83px;"/>
    <path d="M373.75,144.505C382.086,165.123 386.676,187.65 386.676,211.241C386.676,309.671 306.763,389.583 208.334,389.583C184.743,389.583 162.216,384.993 141.598,376.657" style="fill:none;stroke:rgb(30,21,42);stroke-width:20.83px;"/>
    <path d="M141.597,376.657C96.806,358.549 61.025,322.767 42.917,277.977" style="fill:none;stroke:rgb(30,21,42);stroke-width:20.83px;"/>
    <path d="M275.07,45.825C311.004,36.486 341.9,40.049 360.713,58.862C379.526,77.675 383.089,108.572 373.75,144.505" style="fill:none;stroke:rgb(255,183,13);stroke-width:20.83px;"/>
    <path d="M284.523,287.431C238.049,333.905 185.981,365.123 141.597,376.658" style="fill:none;stroke:rgb(255,183,13);stroke-width:20.83px;"/>
    <path d="M141.597,376.657C105.663,385.996 74.767,382.433 55.954,363.62C37.141,344.807 33.578,313.91 42.917,277.977" style="fill:none;stroke:rgb(255,183,13);stroke-width:20.83px;"/>
    <g>
        <path d="M306.437,254.033C307.088,248.126 309.032,240.344 314.456,234.92C324.321,225.055 341.987,226.702 341.987,226.702C341.987,226.702 343.634,244.368 333.769,254.233C328.345,259.657 320.563,261.601 314.656,262.252L306.438,254.034" style="fill:rgb(30,21,42);"/>
        <path d="M308.922,243.603C308.922,243.603 300.588,240.726 292.551,248.763C292.551,248.763 298.655,246.25 306.438,254.033" style="fill:rgb(30,21,42);"/>
        <path d="M325.085,259.766C325.085,259.766 327.962,268.1 319.925,276.137C319.925,276.137 322.438,270.033 314.655,262.25" style="fill:rgb(30,21,42);"/>
        <path d="M333.569,226.901L341.787,235.119" style="fill:none;"/>
        <path d="M332.331,236.358C334.599,238.626 334.599,242.308 332.331,244.576C330.063,246.844 326.381,246.844 324.113,244.576C321.845,242.308 321.845,238.626 324.113,236.358C326.381,234.09 330.063,234.09 332.331,236.358Z" style="fill:rgb(30,21,42);"/>
        <path d="M317.004,251.685L306.238,262.451" style="fill:none;"/>
        <path d="M313.985,261.581C313.458,262.909 312.705,264.201 311.63,265.276C307.432,269.474 299.915,268.773 299.915,268.773C299.915,268.773 299.214,261.256 303.412,257.058C304.487,255.983 307.107,254.703 307.107,254.703L313.985,261.581Z" style="fill:rgb(30,21,42);"/>
    </g>
    <path d="M42.917,277.977C34.581,257.359 29.991,234.832 29.991,211.241C29.991,112.811 109.904,32.899 208.333,32.899C231.924,32.899 254.451,37.489 275.069,45.825" style="fill:none;stroke:rgb(30,21,42);stroke-width:20.83px;"/>
    <path d="M275.07,45.825C298.049,55.115 318.656,69.056 335.723,86.48" style="fill:none;stroke:rgb(30,21,42);stroke-width:20.83px;"/>
    <path d="M79.5,334.512C63.97,318.287 51.471,299.137 42.917,277.977" style="fill:none;stroke:rgb(30,21,42);stroke-width:20.83px;"/>
</svg>
