<?xml version="1.0" encoding="UTF-8" standalone="no"?><!DOCTYPE svg PUBLIC "-//W3C//DTD SVG 1.1//EN" "http://www.w3.org/Graphics/SVG/1.1/DTD/svg11.dtd"><svg width="100%" height="100%" viewBox="0 0 417 417" version="1.1" xmlns="http://www.w3.org/2000/svg" xmlns:xlink="http://www.w3.org/1999/xlink" xml:space="preserve" xmlns:serif="http://www.serif.com/" style="fill-rule:evenodd;clip-rule:evenodd;stroke-linecap:round;stroke-linejoin:round;stroke-miterlimit:1.5;"><rect id="Artboard1" x="0" y="0" width="416.667" height="416.667" style="fill:none;"/><path d="M334.999,153.217c37.85,21.915 63.334,62.854 63.334,109.699c0,69.909 -56.757,126.667 -126.667,126.667c-23.065,0 -44.698,-6.178 -63.333,-16.968c-18.636,10.79 -40.269,16.968 -63.333,16.968c-69.909,0 -126.667,-56.757 -126.667,-126.667c0,-46.845 25.485,-87.785 63.334,-109.699c0.287,-69.665 56.934,-126.134 126.666,-126.134c69.732,0 126.378,56.469 126.666,126.134" style="fill:#fff;stroke:#1e152a;stroke-width:20.83px;"/><path d="M324.582,153.26c-0.024,-5.749 4.625,-10.436 10.374,-10.46c5.749,-0.024 10.436,4.625 10.46,10.374l0.001,0.576c0,14.641 -2.302,28.749 -6.561,41.982c-1.761,5.473 -7.634,8.486 -13.107,6.725c-5.473,-1.761 -8.486,-7.634 -6.725,-13.107c3.611,-11.221 5.559,-23.185 5.559,-35.6l-0.001,-0.49Zm-29.773,78.146c3.843,-4.276 10.435,-4.627 14.711,-0.784c4.276,3.843 4.627,10.435 0.784,14.711c-9.617,10.699 -20.892,19.878 -33.419,27.131c-4.975,2.881 -11.353,1.18 -14.234,-3.795c-2.881,-4.975 -1.18,-11.353 3.795,-14.234c10.632,-6.156 20.201,-13.947 28.363,-23.028Z" style="fill:#1e152a;"/><path d="M145.001,263.449c-0.001,-0.177 -0.001,-0.355 -0.001,-0.533c0,-46.845 25.484,-87.784 63.333,-109.699c37.849,21.915 63.333,62.854 63.333,109.699c0,0.178 -0,0.355 -0.001,0.533c-18.635,10.79 -40.268,16.967 -63.332,16.967c-23.064,0 -44.697,-6.178 -63.332,-16.967" style="fill:#ffb70d;stroke:#1e152a;stroke-width:20.83px;"/><path d="M150.221,254.435c4.975,2.881 6.676,9.259 3.795,14.234c-2.881,4.975 -9.259,6.676 -14.234,3.795c-12.527,-7.253 -23.803,-16.432 -33.419,-27.131c-3.843,-4.276 -3.492,-10.867 0.784,-14.711c4.276,-3.843 10.867,-3.492 14.711,0.784c8.162,9.081 17.731,16.873 28.363,23.028Zm-52.578,-65.084c1.761,5.473 -1.252,11.346 -6.725,13.107c-5.473,1.761 -11.346,-1.252 -13.107,-6.725c-4.259,-13.233 -6.561,-27.341 -6.561,-41.982l0.001,-0.576c0.024,-5.749 4.71,-10.397 10.46,-10.374c5.749,0.024 10.397,4.71 10.374,10.46l-0.001,0.49c0,12.415 1.948,24.379 5.559,35.6Z" style="fill:#1e152a;"/><path d="M86.887,162.232c-4.975,2.881 -11.353,1.18 -14.234,-3.795c-2.881,-4.975 -1.18,-11.353 3.795,-14.234c12.277,-7.108 25.755,-12.367 40.053,-15.396c5.624,-1.191 11.158,2.407 12.349,8.032c1.191,5.624 -2.407,11.158 -8.032,12.349c-12.113,2.566 -23.531,7.022 -33.932,13.044Zm82.295,-13.044c-5.624,-1.192 -9.223,-6.725 -8.032,-12.349c1.192,-5.624 6.725,-9.223 12.349,-8.032c14.298,3.029 27.776,8.288 40.053,15.396c4.975,2.881 6.676,9.259 3.795,14.234c-2.881,4.975 -9.259,6.676 -14.234,3.795c-10.401,-6.022 -21.819,-10.478 -33.932,-13.045Z" style="fill:#1e152a;"/><path d="M261.249,263.406c0.024,-5.749 4.71,-10.397 10.46,-10.374c5.749,0.024 10.397,4.71 10.374,10.46c-0.061,14.719 -2.448,28.893 -6.809,42.174c-1.794,5.462 -7.684,8.441 -13.147,6.647c-5.462,-1.794 -8.441,-7.684 -6.647,-13.147c3.698,-11.262 5.718,-23.281 5.77,-35.761Zm-29.969,77.384c3.854,-4.266 10.446,-4.601 14.712,-0.747c4.266,3.854 4.601,10.446 0.747,14.712c-9.566,10.59 -20.761,19.68 -33.187,26.875c-4.975,2.881 -11.353,1.18 -14.234,-3.795c-2.881,-4.975 -1.18,-11.353 3.795,-14.234c10.547,-6.107 20.048,-13.823 28.166,-22.81Z" style="fill:#1e152a;"/><path d="M213.553,162.233c-4.975,2.881 -11.353,1.18 -14.234,-3.795c-2.881,-4.975 -1.18,-11.353 3.795,-14.234c12.277,-7.108 25.755,-12.367 40.053,-15.396c5.624,-1.192 11.158,2.407 12.349,8.032c1.192,5.624 -2.407,11.158 -8.032,12.349c-12.113,2.566 -23.531,7.023 -33.932,13.045Zm82.295,-13.045c-5.624,-1.191 -9.223,-6.725 -8.032,-12.349c1.191,-5.624 6.725,-9.223 12.349,-8.032c14.298,3.029 27.776,8.288 40.053,15.396c4.975,2.881 6.676,9.259 3.795,14.234c-2.881,4.975 -9.259,6.676 -14.234,3.795c-10.401,-6.022 -21.819,-10.478 -33.932,-13.044Z" style="fill:#1e152a;"/><path d="M213.553,363.601c4.975,2.881 6.676,9.259 3.795,14.234c-2.881,4.975 -9.259,6.676 -14.234,3.795c-12.427,-7.195 -23.621,-16.285 -33.187,-26.875c-3.854,-4.266 -3.519,-10.859 0.747,-14.712c4.266,-3.854 10.859,-3.519 14.712,0.747c8.119,8.988 17.62,16.704 28.166,22.81Zm-52.365,-64.434c1.794,5.462 -1.185,11.353 -6.647,13.147c-5.462,1.794 -11.353,-1.185 -13.147,-6.647c-4.361,-13.282 -6.749,-27.456 -6.809,-42.174c-0.024,-5.749 4.625,-10.436 10.374,-10.46c5.749,-0.024 10.436,4.625 10.46,10.374c0.051,12.48 2.072,24.499 5.77,35.761Z" style="fill:#1e152a;"/></svg>