<?xml version="1.0" encoding="UTF-8" standalone="no"?>
<!DOCTYPE svg PUBLIC "-//W3C//DTD SVG 1.1//EN" "http://www.w3.org/Graphics/SVG/1.1/DTD/svg11.dtd">
<svg width="100%" height="100%" viewBox="0 0 90 104" version="1.1" xmlns="http://www.w3.org/2000/svg" xmlns:xlink="http://www.w3.org/1999/xlink" xml:space="preserve" xmlns:serif="http://www.serif.com/" style="fill-rule:evenodd;clip-rule:evenodd;stroke-linejoin:round;stroke-miterlimit:2;">
    <g id="Web-Logo" serif:id="Web Logo" transform="matrix(0.11225,0,0,0.173333,0,0)">
        <rect x="0" y="0" width="800" height="600" style="fill:none;"/>
        <g transform="matrix(11.8782,0,0,7.69231,-137.491,-543.535)">
            <path d="M77.419,72.16C68.505,82.113 63.081,95.258 63.081,109.66C63.081,124.061 68.505,137.206 77.419,147.16L61.713,147.16C54.674,136.372 50.581,123.49 50.581,109.66C50.581,95.829 54.674,82.947 61.713,72.16L77.419,72.16ZM28.382,109.66C32.438,113.631 34.956,119.166 34.956,125.285C34.956,130.459 39.157,134.66 44.331,134.66L44.331,147.16C32.258,147.16 22.456,137.358 22.456,125.285C22.456,120.11 18.255,115.91 13.081,115.91L13.081,103.41C18.255,103.41 22.456,99.209 22.456,94.035C22.456,81.961 32.258,72.16 44.331,72.16L44.331,84.66C39.157,84.66 34.956,88.86 34.956,94.035C34.956,100.153 32.438,105.688 28.382,109.66Z" style="fill:url(#_Linear1);"/>
        </g>
    </g>
    <defs>
        <linearGradient id="_Linear1" x1="0" y1="0" x2="1" y2="0" gradientUnits="userSpaceOnUse" gradientTransform="matrix(-64.3379,-75,87.429,-75,77.4189,147.16)"><stop offset="0" style="stop-color:rgb(255,183,13);stop-opacity:1"/><stop offset="1" style="stop-color:rgb(255,153,13);stop-opacity:1"/></linearGradient>
    </defs>
</svg>
