<?xml version="1.0" encoding="UTF-8" standalone="no"?><!DOCTYPE svg PUBLIC "-//W3C//DTD SVG 1.1//EN" "http://www.w3.org/Graphics/SVG/1.1/DTD/svg11.dtd"><svg width="100%" height="100%" viewBox="0 0 417 417" version="1.1" xmlns="http://www.w3.org/2000/svg" xmlns:xlink="http://www.w3.org/1999/xlink" xml:space="preserve" xmlns:serif="http://www.serif.com/" style="fill-rule:evenodd;clip-rule:evenodd;stroke-linecap:round;stroke-linejoin:round;stroke-miterlimit:1.5;"><rect id="Artboard1" x="0" y="0" width="416.667" height="416.667" style="fill:none;"/><path d="M148.116,152.657c0,0 -59.757,-20.63 -117.386,36.999c0,0 43.766,-18.017 99.569,37.786" style="fill:#fff;stroke:#1e152a;stroke-width:20.83px;"/><path d="M264.01,268.551c0,0 20.63,59.757 -36.999,117.386c0,0 18.017,-43.766 -37.786,-99.569" style="fill:#fff;stroke:#1e152a;stroke-width:20.83px;"/><path d="M184.42,281.563c-3.775,9.522 -9.179,18.788 -16.885,26.494c-30.1,30.1 -84,25.075 -84,25.075c0,0 -5.025,-53.9 25.075,-84c7.706,-7.706 26.494,-16.885 26.494,-16.885l49.317,49.317Z" style="fill:#ffb70d;stroke:#1e152a;stroke-width:20.83px;"/><path d="M130.299,227.442c4.668,-42.357 18.606,-98.156 57.497,-137.047c70.735,-70.735 197.401,-58.926 197.401,-58.926c0,0 11.81,126.665 -58.926,197.401c-38.891,38.891 -94.689,52.829 -137.047,57.497l-58.926,-58.926" style="fill:#fff;stroke:#1e152a;stroke-width:20.83px;"/><path d="M324.842,32.899l58.926,58.926" style="fill:none;stroke:#1e152a;stroke-width:20.83px;"/><path d="M315.959,100.708c16.261,16.261 16.261,42.665 0,58.926c-16.261,16.261 -42.665,16.261 -58.926,0c-16.261,-16.261 -16.261,-42.665 0,-58.926c16.261,-16.261 42.665,-16.261 58.926,0Z" style="fill:#ffb70d;stroke:#1e152a;stroke-width:20.83px;"/><path d="M206.063,210.604l-77.192,77.192" style="fill:none;stroke:#1e152a;stroke-width:20.83px;"/><path d="M130.299,227.442" style="fill:none;stroke:#1e152a;stroke-width:20.83px;"/></svg>